<?xml version="1.0" standalone="no"?>
<!DOCTYPE svg PUBLIC "-//W3C//DTD SVG 20010904//EN"
 "http://www.w3.org/TR/2001/REC-SVG-20010904/DTD/svg10.dtd">
<svg version="1.0" xmlns="http://www.w3.org/2000/svg"
 width="700.000000pt" height="700.000000pt" viewBox="0 0 700.000000 700.000000"
 preserveAspectRatio="xMidYMid meet">
<metadata>
Created by potrace 1.14, written by Peter Selinger 2001-2017
</metadata>
<g transform="translate(0.000000,700.000000) scale(0.100000,-0.100000)"
fill="#000000" stroke="none">
<path d="M3422 5714 c-87 -18 -164 -65 -253 -153 -114 -115 -223 -295 -298
-492 l-10 -27 -108 44 c-59 24 -113 44 -118 44 -6 0 -16 13 -22 30 -17 44 -54
55 -108 31 -24 -11 -45 -18 -47 -16 -2 2 -32 7 -68 11 -416 50 -626 -162 -576
-580 11 -91 53 -240 100 -359 l44 -109 -34 -14 c-18 -8 -36 -14 -40 -14 -15 0
-245 -121 -304 -160 -97 -64 -219 -192 -257 -270 -37 -76 -46 -114 -44 -192 2
-143 91 -281 266 -411 44 -33 90 -70 102 -83 12 -13 32 -24 45 -24 13 0 52
-14 88 -32 36 -17 88 -41 116 -52 28 -12 53 -23 54 -26 2 -3 -16 -54 -39 -115
-101 -257 -130 -489 -81 -647 12 -40 18 -77 14 -96 -5 -24 -1 -36 19 -56 15
-14 35 -26 46 -26 10 0 42 -16 71 -35 169 -114 442 -103 773 29 l108 43 15
-36 c90 -216 172 -355 276 -467 131 -140 277 -198 428 -170 194 37 416 299
549 650 l10 25 81 -34 c177 -75 351 -116 495 -117 237 -2 384 87 450 272 28
77 35 172 22 301 -6 58 -4 68 14 88 45 48 18 139 -45 155 -17 4 -31 29 -64
115 -24 61 -43 114 -43 117 0 4 35 22 78 41 330 142 517 303 578 494 72 228
-82 460 -425 641 -63 33 -158 77 -212 97 l-27 10 34 81 c35 81 83 228 91 278
3 15 7 33 9 40 16 46 23 199 12 281 -31 237 -190 370 -447 373 -52 1 -116 -2
-142 -6 -87 -12 -233 -53 -341 -96 -58 -23 -109 -41 -113 -41 -4 0 -19 28 -33
63 -149 352 -353 580 -543 604 -24 3 -52 7 -63 8 -11 2 -48 -3 -83 -10z m221
-92 c79 -36 187 -137 252 -237 49 -75 135 -242 163 -316 l20 -56 -53 -26 c-44
-21 -62 -25 -106 -20 -48 4 -57 2 -76 -18 -12 -13 -23 -36 -25 -51 -3 -21 -32
-45 -161 -131 l-156 -105 -156 103 c-85 57 -216 137 -289 178 l-134 73 37 90
c182 440 433 630 684 516z m-1223 -505 c25 -5 56 -20 70 -32 30 -28 45 -31 86
-21 30 7 107 -17 225 -68 l37 -15 -34 -112 c-19 -62 -36 -121 -39 -133 -2 -12
-13 -59 -24 -106 -11 -47 -22 -96 -24 -110 -38 -205 -40 -210 -83 -210 -58 0
-390 -77 -551 -128 l-63 -20 -18 42 c-135 305 -166 573 -87 740 23 48 93 118
142 142 87 41 245 55 363 31z m2437 -3 c145 -36 232 -129 263 -279 30 -147
-17 -394 -122 -631 l-18 -42 -77 24 c-43 14 -132 38 -198 55 -128 33 -133 34
-189 43 -19 3 -57 11 -83 17 -27 6 -61 11 -76 11 -32 1 -42 16 -50 78 -9 62
-29 158 -62 300 -10 44 -46 173 -63 227 l-20 63 47 21 c243 107 495 151 648
113z m-1750 -276 c102 -59 319 -203 327 -216 3 -5 -43 -47 -102 -94 -59 -48
-116 -94 -127 -105 -55 -49 -68 -56 -103 -59 -92 -6 -205 -17 -299 -29 l-52
-7 6 39 c8 56 71 351 85 398 6 22 12 42 13 45 10 39 28 98 36 116 l9 24 59
-30 c33 -16 100 -53 148 -82z m1032 -8 c34 -119 60 -226 81 -335 6 -27 12 -61
15 -75 3 -14 8 -40 11 -59 l7 -33 -49 6 c-87 12 -118 15 -199 22 -44 3 -94 7
-112 9 -24 2 -62 27 -145 97 -62 52 -130 107 -150 122 -21 16 -35 32 -32 37 3
5 66 50 141 99 131 88 136 91 179 84 39 -6 46 -3 74 24 16 17 30 39 30 49 0
13 17 27 53 45 28 14 55 23 59 19 3 -3 20 -53 37 -111z m-532 -338 c54 -44
108 -88 121 -98 23 -19 20 -19 -227 -19 -189 0 -247 3 -238 11 33 32 230 184
237 184 5 0 53 -35 107 -78z m44 -183 c85 -1 164 -5 176 -10 12 -4 64 -48 115
-98 78 -75 93 -94 94 -122 2 -39 34 -69 74 -69 22 0 44 -17 105 -82 43 -46 81
-92 85 -103 4 -11 8 -161 8 -333 l1 -312 -27 -33 c-58 -71 -334 -349 -415
-418 -45 -39 -34 -37 -362 -38 -302 0 -330 1 -358 25 -73 62 -369 357 -423
423 -32 39 -33 43 -33 371 0 290 2 316 25 343 54 63 334 346 409 412 45 39 57
42 210 44 77 1 141 4 144 6 2 3 7 3 10 0 4 -2 77 -5 162 -6z m-777 -196 c-98
-98 -175 -173 -172 -168 3 6 9 48 12 95 3 47 8 94 10 105 2 11 7 41 10 68 4
26 10 47 14 48 4 0 14 2 22 3 27 6 113 16 190 22 41 4 77 8 79 10 2 2 6 2 8 0
3 -2 -76 -84 -173 -183z m1170 173 c82 -8 208 -25 213 -30 7 -7 21 -110 28
-211 4 -44 9 -87 11 -95 3 -8 -21 11 -51 44 -42 43 -58 68 -61 93 -6 44 -22
60 -72 71 -29 7 -57 26 -101 69 -61 60 -72 76 -48 68 6 -2 43 -6 81 -9z
m-1379 -83 c-3 -27 -8 -61 -10 -78 -4 -30 -13 -141 -19 -222 -3 -36 -16 -57
-98 -155 -52 -62 -107 -130 -122 -150 -16 -21 -32 -36 -36 -33 -4 3 -35 45
-69 94 -51 75 -60 94 -55 119 5 25 1 36 -20 57 -14 14 -30 24 -35 20 -12 -7
-37 29 -100 147 l-53 98 24 9 c103 39 480 128 591 140 5 1 5 -20 2 -46z m1755
32 c14 -3 48 -9 75 -15 28 -5 61 -12 75 -15 14 -3 38 -8 54 -11 16 -2 32 -7
36 -9 3 -2 17 -6 31 -8 30 -6 241 -67 252 -74 10 -6 -83 -183 -97 -183 -15 0
-40 -40 -43 -70 -2 -22 -162 -272 -182 -285 -5 -2 -21 12 -37 33 -15 20 -71
88 -123 150 -79 96 -95 120 -97 152 -6 102 -22 263 -30 314 l-6 39 33 -7 c19
-3 45 -8 59 -11z m-2290 -447 c0 -19 10 -35 31 -50 17 -13 64 -71 105 -130
l75 -108 -75 -107 c-87 -127 -185 -287 -241 -395 l-40 -76 -50 20 c-130 50
-180 79 -195 111 -13 28 -20 32 -57 33 -32 1 -56 11 -106 47 -137 98 -225 228
-232 344 -5 63 18 165 41 184 8 6 14 18 14 26 0 21 147 164 212 206 83 55 197
114 290 152 l82 34 72 -132 c41 -73 73 -144 74 -159z m3075 207 c213 -103 352
-220 416 -350 29 -60 34 -79 34 -144 0 -64 -5 -86 -31 -141 -61 -128 -200
-248 -405 -348 -68 -33 -142 -67 -164 -75 l-41 -15 -24 46 c-73 142 -276 469
-317 510 -7 7 -13 15 -13 17 0 1 43 67 96 146 76 112 103 146 125 152 35 9 52
39 46 81 -3 23 7 52 42 117 l46 87 40 -15 c22 -8 90 -39 150 -68z m-2580 -490
c0 -135 -1 -245 -3 -245 -7 0 -30 27 -110 129 -77 97 -92 125 -74 133 4 2 31
35 61 73 30 39 71 89 90 112 20 23 36 42 36 43 0 0 0 -110 0 -245z m1855 117
c49 -63 90 -117 90 -122 0 -6 -88 -119 -180 -232 -13 -16 -15 8 -15 227 0 135
3 244 7 242 4 -1 48 -53 98 -115z m-1948 -362 c104 -126 100 -116 113 -275 4
-44 9 -93 11 -110 2 -16 6 -52 9 -78 l6 -48 -28 6 c-15 2 -53 9 -83 15 -30 6
-68 13 -85 15 -82 14 -396 98 -418 112 -16 10 148 294 270 467 l56 80 26 -34
c14 -19 70 -86 123 -150z m2166 68 c142 -209 262 -425 240 -433 -128 -45 -300
-89 -473 -120 -44 -8 -92 -17 -108 -21 l-27 -6 5 54 c3 29 7 62 9 73 2 11 7
61 11 110 4 50 8 105 10 123 3 23 26 59 77 120 40 48 95 115 122 149 27 35 52
60 56 58 5 -3 39 -51 78 -107z m-1818 -448 c148 -148 191 -194 162 -176 -4 2
-41 7 -82 10 -41 4 -86 8 -100 10 -14 2 -46 7 -72 11 -27 3 -48 9 -49 13 -3
34 -10 81 -13 97 -3 11 -8 58 -12 105 -3 47 -8 88 -11 93 -16 26 27 -13 177
-163z m1415 158 c-2 -7 -6 -47 -10 -88 -3 -41 -8 -84 -10 -95 -2 -11 -7 -40
-10 -64 -2 -24 -7 -46 -9 -48 -2 -2 -21 -6 -42 -9 -22 -2 -48 -6 -59 -8 -11
-3 -60 -8 -110 -12 -49 -3 -94 -9 -100 -12 -5 -3 69 73 165 170 96 97 178 177
182 177 4 1 6 -5 3 -11z m-2155 -236 c145 -46 515 -126 531 -116 7 4 13 -17
23 -86 9 -56 31 -163 61 -290 10 -44 46 -173 63 -227 l20 -63 -47 -21 c-97
-43 -248 -91 -356 -114 -16 -4 -77 -9 -135 -11 -123 -4 -198 12 -272 60 -40
25 -47 36 -50 66 -2 28 -9 38 -35 50 -48 22 -67 81 -69 210 -3 162 34 316 130
542 18 41 3 41 136 0z m2890 -83 l42 -106 -20 -32 c-16 -27 -18 -39 -10 -72 6
-21 13 -39 17 -39 3 0 19 -11 35 -23 29 -23 29 -25 32 -138 6 -204 -51 -326
-182 -392 -68 -35 -91 -39 -209 -43 -142 -4 -341 43 -527 126 l-47 20 20 57
c21 61 96 357 105 412 3 18 8 43 10 55 7 32 17 99 17 114 0 19 26 27 142 47
112 19 332 73 445 108 41 13 78 21 81 18 4 -3 26 -54 49 -112z m-2150 -64 c14
-2 61 -7 105 -10 158 -12 150 -9 269 -109 61 -51 128 -105 150 -121 l38 -29
-22 -18 c-16 -13 -32 -16 -59 -12 -47 8 -91 -24 -91 -66 0 -25 -10 -35 -87
-83 -130 -80 -281 -159 -286 -150 -24 39 -112 400 -142 581 l-6 33 53 -6 c29
-3 64 -8 78 -10z m1370 6 c0 -52 -107 -500 -139 -584 l-11 -28 -96 51 c-145
78 -424 255 -438 279 -3 4 62 62 144 129 160 131 146 124 295 137 131 10 190
17 194 21 8 8 51 4 51 -5z m-517 -51 c-163 -134 -226 -181 -236 -177 -7 2 -43
29 -82 59 -66 51 -82 63 -142 113 l-24 20 251 0 c225 0 249 -2 233 -15z m-110
-354 c139 -95 315 -202 399 -241 l57 -27 -20 -51 c-111 -281 -266 -489 -419
-561 -54 -25 -77 -30 -141 -30 -66 -1 -84 4 -145 33 -81 40 -185 140 -252 241
-46 69 -128 231 -161 316 l-19 50 71 37 c100 51 160 86 245 140 40 26 82 47
95 47 45 0 67 12 78 44 9 24 69 83 87 86 1 0 57 -38 125 -84z"/>
<path d="M3430 3937 c-222 -27 -391 -219 -392 -447 -2 -259 213 -468 470 -456
88 5 114 12 195 54 143 74 231 214 241 380 16 276 -234 504 -514 469z"/>
</g>
</svg>
